<?xml version="1.0" encoding="UTF-8"?>
<svg xmlns="http://www.w3.org/2000/svg" style="stroke-dasharray:none; shape-rendering:auto; font-family:'Arial'; text-rendering:auto; fill-opacity:1; color-interpolation:auto; color-rendering:auto; font-size:12; fill:black; stroke:black; image-rendering:auto; stroke-miterlimit:10; stroke-linecap:square; stroke-linejoin:miter; font-style:normal; stroke-width:1; stroke-dashoffset:0; font-weight:normal; stroke-opacity:1;" contentScriptType="text/ecmascript" preserveAspectRatio="xMidYMid meet" zoomAndPan="magnify" version="1.0" contentStyleType="text/css" xml:xlink="http://www.w3.org/1999/xlink" width="801" height="621"><rect x="10" y="10" width="791" height="611" ry="0" rx="0" style="stroke:#000000; fill:#FFFFFF" /><rect x="40" y="466" width="761" height="155" ry="0" rx="0" style="stroke:#000000; fill:#82B0B7" /><g componentSequence="7"><text x="-543" y="47" transform="rotate(270)" text-anchor="middle" style="font-weight:bold;font-size:10px;stroke:none; fill:#434343"><tspan dy="14" x="-543">T.i.</tspan></text></g><rect x="40" y="162" width="761" height="152" ry="0" rx="0" style="stroke:#000000; fill:#508575" /><g componentSequence="6"><text x="-238" y="47" transform="rotate(270)" text-anchor="middle" style="font-weight:bold;font-size:10px;stroke:none; fill:#434343"><tspan dy="14" x="-238">Líder</tspan></text></g><rect x="40" y="314" width="761" height="152" ry="0" rx="0" style="stroke:#000000; fill:#A65B59" /><g componentSequence="3"><text x="-390" y="47" transform="rotate(270)" text-anchor="middle" style="font-weight:bold;font-size:10px;stroke:none; fill:#434343"><tspan dy="14" x="-390">Mecânico</tspan></text></g><rect x="40" y="10" width="761" height="152" ry="0" rx="0" style="stroke:#000000; fill:#FDBB42" /><g componentSequence="2"><text x="-86" y="47" transform="rotate(270)" text-anchor="middle" style="font-weight:bold;font-size:10px;stroke:none; fill:#434343"><tspan dy="14" x="-86">Controlador</tspan></text></g><g componentSequence="1"><text x="-315" y="17" transform="rotate(270)" text-anchor="middle" style="font-weight:bold;font-size:10px;stroke:none; fill:#434343"><tspan dy="14" x="-315">Ordem de Serviço Preventiva</tspan></text></g><g sequence="12"><ellipse cx="87" cy="87" rx="17" ry="17" stroke-width="1" style="fill:url(#linearGradient66FF6696FF96B6FFB6_1536109294);" stroke="336633" /></g><g sequence="13"><ellipse cx="757" cy="391" rx="17" ry="17" stroke-width="3" style="fill:url(#linearGradientFF6666FF9696FFB6B6_1430835183);" stroke="993333" /></g><g sequence="14"><rect x="280" y="212" width="106" height="56" ry="5" rx="5" style="fill:url(#linearGradientF8FBFEEDF5FCDEEDFAD4E7F8E2E5E9_1366770078);" stroke="191970" /></g><g componentSequence="14"><text x="333" y="229" text-anchor="middle" style="font-weight:bold;font-size:10px;stroke:none; fill:#333399"><tspan dy="14" x="333">Aprovação RM</tspan></text></g><g sequence="16"><rect x="280" y="60" width="106" height="56" ry="5" rx="5" style="fill:url(#linearGradientF8FBFEEDF5FCDEEDFAD4E7F8E2E5E9_343262676);" stroke="191970" /></g><g componentSequence="16"><text x="333" y="77" text-anchor="middle" style="font-weight:bold;font-size:10px;stroke:none; fill:#333399"><tspan dy="14" x="333">Follow UP</tspan></text></g><g sequence="18"><rect x="530" y="357" width="106" height="70" ry="5" rx="5" style="fill:url(#linearGradientF8FBFEEDF5FCDEEDFAD4E7F8E2E5E9_906970606);" stroke="191970" /></g><g componentSequence="18"><text x="583" y="372" text-anchor="middle" style="font-weight:bold;font-size:10px;stroke:none; fill:#333399"><tspan dy="14" x="583">Execução</tspan><tspan dy="14" x="583">Preventiva</tspan></text></g><g sequence="26"><rect x="410" y="511" width="106" height="70" ry="5" rx="5" style="fill:url(#linearGradientF8FBFEEDF5FCDEEDFAD4E7F8E2E5E9_623629175);" stroke="191970" /></g><g componentSequence="26"><text x="463" y="526" text-anchor="middle" style="font-weight:bold;font-size:10px;stroke:none; fill:#333399"><tspan dy="14" x="463">Resolve Erros</tspan><tspan dy="14" x="463">de Integração</tspan></text></g><g sequence="29"><ellipse cx="677" cy="545" rx="17" ry="17" stroke-width="3" style="fill:url(#linearGradientFF6666FF9696FFB6B6_1320881661);" stroke="993333" /></g><g componentSequence="17"><text x="343" y="164" style="font-size:10px;font-weight:none;stroke:none; fill:#333399" text-anchor="left" /></g><g componentSequence="19"><text x="592" y="124" style="font-size:10px;font-weight:none;stroke:none; fill:#333399" text-anchor="left" /></g><g componentSequence="30"><text x="598" y="545" style="font-size:10px;font-weight:none;stroke:none; fill:#333399" text-anchor="left" /></g><g componentSequence="32"><text x="343" y="164" style="font-size:10px;font-weight:none;stroke:none; fill:#333399" text-anchor="left" /></g><g componentSequence="44"><text x="140" y="73" style="font-size:10px;font-weight:none;stroke:none; fill:#333399" text-anchor="left"><tspan dy="14" x="140">Enviar para Follow UP</tspan></text></g><g componentSequence="45"><text x="191" y="391" style="font-size:10px;font-weight:none;stroke:none; fill:#333399" text-anchor="left"><tspan dy="14" x="191">Execução da Preventiva</tspan></text></g><g componentSequence="46"><text x="472" y="287" style="font-size:10px;font-weight:none;stroke:none; fill:#333399" text-anchor="left" /></g><g componentSequence="47"><text x="97" y="486" style="font-size:10px;font-weight:none;stroke:none; fill:#333399" text-anchor="left" /></g><g componentSequence="48"><text x="576" y="478" style="font-size:10px;font-weight:none;stroke:none; fill:#333399" text-anchor="left" /></g><g componentSequence="49"><text x="506" y="458" style="font-size:10px;font-weight:none;stroke:none; fill:#333399" text-anchor="left" /></g><g componentSequence="50"><text x="650" y="378" style="font-size:10px;font-weight:none;stroke:none; fill:#333399" text-anchor="left"><tspan dy="14" x="650">Encerrar OS</tspan></text></g><path style="fill:none; stroke:#000000;stroke-width:1" d="M104.0 87.0 L279.0 87.0" /><polygon style="fill:#000000; stroke:#000000;" points=" 269 82 279 87 269 92 271 87" /><path style="fill:none; stroke:#000000;stroke-width:1" d="M100.0 99.0 L133.0 130.0 L133.0 391.0 L529.0 391.0" /><polygon style="fill:#000000; stroke:#000000;" points=" 519 386 529 391 519 396 521 391" /><path style="fill:none; stroke:#000000;stroke-width:1" d="M409.0 545.0 L87.0 545.0 L87.0 105.0" /><polygon style="fill:#000000; stroke:#000000;" points=" 82 115 87 105 92 115 87 113" /><path style="fill:none; stroke:#000000;stroke-width:1" d="M636.0 391.0 L740.0 391.0" /><polygon style="fill:#000000; stroke:#000000;" points=" 730 386 740 391 730 396 732 391" /><path style="fill:none; stroke:#000000;stroke-width:1" d="M333.0 211.0 L333.0 116.0" /><polygon style="fill:#000000; stroke:#000000;" points=" 328 126 333 116 338 126 333 124" /><path style="fill:none; stroke:#000000;stroke-width:1" d="M333.0 116.0 L333.0 211.0" /><polygon style="fill:#000000; stroke:#000000;" points=" 338 201 333 211 328 201 333 203" /><path style="fill:none; stroke:#000000;stroke-width:1" d="M386.0 88.0 L582.0 88.0 L582.0 356.0" /><polygon style="fill:#000000; stroke:#000000;" points=" 587 346 582 356 577 346 582 348" /><path style="fill:none; stroke:#000000;stroke-width:1" d="M386.0 112.0 L462.0 147.0 L462.0 510.0" /><polygon style="fill:#000000; stroke:#000000;" points=" 467 500 462 510 457 500 462 502" /><path style="fill:none; stroke:#000000;stroke-width:1" d="M582.0 427.0 L582.0 468.0 L516.0 511.0" /><polygon style="fill:#000000; stroke:#000000;" points=" 527 510 516 511 522 501 523 507" /><path style="fill:none; stroke:#000000;stroke-width:1" d="M496.0 510.0 L496.0 510.0 L496.0 445.0 L529.0 425.0" /><polygon style="fill:#000000; stroke:#000000;" points=" 518 426 529 425 523 434 522 429" /><path style="fill:none; stroke:#000000;stroke-width:1" d="M516.0 545.0 L660.0 545.0" /><polygon style="fill:#000000; stroke:#000000;" points=" 650 540 660 545 650 550 652 545" /><defs><linearGradient xmlns:xlink="http://www.w3.org/1999/xlink" xlink:href="#linearGradient66FF6696FF96B6FFB6" id="linearGradient66FF6696FF96B6FFB6_1536109294" x1="0" y1="70.0" x2="0" y2="105.0" gradientUnits="userSpaceOnUse" xlink:type="simple" xlink:actuate="onLoad" xlink:show="other" /><linearGradient id="linearGradient66FF6696FF96B6FFB6"><stop style="stop-color:#66FF66;stop-opacity:1;" offset="0.0" id="stop66FF66" /><stop style="stop-color:#96FF96;stop-opacity:1;" offset="0.5" id="stop96FF96" /><stop style="stop-color:#B6FFB6;stop-opacity:1;" offset="1.0" id="stopB6FFB6" /></linearGradient><linearGradient xmlns:xlink="http://www.w3.org/1999/xlink" xlink:href="#linearGradientFF6666FF9696FFB6B6" id="linearGradientFF6666FF9696FFB6B6_1430835183" x1="0" y1="374.0" x2="0" y2="409.0" gradientUnits="userSpaceOnUse" xlink:type="simple" xlink:actuate="onLoad" xlink:show="other" /><linearGradient id="linearGradientFF6666FF9696FFB6B6"><stop style="stop-color:#FF6666;stop-opacity:1;" offset="0.0" id="stopFF6666" /><stop style="stop-color:#FF9696;stop-opacity:1;" offset="0.5" id="stopFF9696" /><stop style="stop-color:#FFB6B6;stop-opacity:1;" offset="1.0" id="stopFFB6B6" /></linearGradient><linearGradient xmlns:xlink="http://www.w3.org/1999/xlink" xlink:href="#linearGradientF8FBFEEDF5FCDEEDFAD4E7F8E2E5E9" id="linearGradientF8FBFEEDF5FCDEEDFAD4E7F8E2E5E9_1366770078" x1="0" y1="212.0" x2="0" y2="318.0" gradientUnits="userSpaceOnUse" xlink:type="simple" xlink:actuate="onLoad" xlink:show="other" /><linearGradient id="linearGradientF8FBFEEDF5FCDEEDFAD4E7F8E2E5E9"><stop style="stop-color:#F8FBFE;stop-opacity:1;" offset="0.0" id="stopF8FBFE" /><stop style="stop-color:#EDF5FC;stop-opacity:1;" offset="0.25" id="stopEDF5FC" /><stop style="stop-color:#DEEDFA;stop-opacity:1;" offset="0.5" id="stopDEEDFA" /><stop style="stop-color:#D4E7F8;stop-opacity:1;" offset="0.75" id="stopD4E7F8" /><stop style="stop-color:#E2E5E9;stop-opacity:1;" offset="1.0" id="stopE2E5E9" /></linearGradient><linearGradient xmlns:xlink="http://www.w3.org/1999/xlink" xlink:href="#linearGradientF8FBFEEDF5FCDEEDFAD4E7F8E2E5E9" id="linearGradientF8FBFEEDF5FCDEEDFAD4E7F8E2E5E9_343262676" x1="0" y1="60.0" x2="0" y2="166.0" gradientUnits="userSpaceOnUse" xlink:type="simple" xlink:actuate="onLoad" xlink:show="other" /><linearGradient xmlns:xlink="http://www.w3.org/1999/xlink" xlink:href="#linearGradientF8FBFEEDF5FCDEEDFAD4E7F8E2E5E9" id="linearGradientF8FBFEEDF5FCDEEDFAD4E7F8E2E5E9_906970606" x1="0" y1="357.0" x2="0" y2="463.0" gradientUnits="userSpaceOnUse" xlink:type="simple" xlink:actuate="onLoad" xlink:show="other" /><linearGradient xmlns:xlink="http://www.w3.org/1999/xlink" xlink:href="#linearGradientF8FBFEEDF5FCDEEDFAD4E7F8E2E5E9" id="linearGradientF8FBFEEDF5FCDEEDFAD4E7F8E2E5E9_623629175" x1="0" y1="511.0" x2="0" y2="617.0" gradientUnits="userSpaceOnUse" xlink:type="simple" xlink:actuate="onLoad" xlink:show="other" /><linearGradient xmlns:xlink="http://www.w3.org/1999/xlink" xlink:href="#linearGradientFF6666FF9696FFB6B6" id="linearGradientFF6666FF9696FFB6B6_1320881661" x1="0" y1="528.0" x2="0" y2="563.0" gradientUnits="userSpaceOnUse" xlink:type="simple" xlink:actuate="onLoad" xlink:show="other" /></defs></svg>
